HIERARCHY
ROOT Hips
{
	OFFSET -0.001795 -0.223333 0.028219
	CHANNELS 6 Xposition Yposition Zposition Zrotation Yrotation Xrotation 
	JOINT LeftUpLeg
	{
		OFFSET 0.069520 -0.091406 -0.006815
		CHANNELS 3 Zrotation Yrotation Xrotation
		JOINT LeftLeg
		{
			OFFSET 0.034277 -0.375199 -0.004496
			CHANNELS 3 Zrotation Yrotation Xrotation
			JOINT LeftFoot
			{
				OFFSET -0.013596 -0.397961 -0.043693
				CHANNELS 3 Zrotation Yrotation Xrotation
				JOINT LeftToe
				{
					OFFSET 0.026358 -0.055791 0.119288
					CHANNELS 3 Zrotation Yrotation Xrotation
					End Site
					{
						OFFSET 0.000000 0.000000 0.000000
					}
				}
			}
		}
	}
	JOINT RightUpLeg
	{
		OFFSET -0.067670 -0.090522 -0.004320
		CHANNELS 3 Zrotation Yrotation Xrotation
		JOINT RightLeg
		{
			OFFSET -0.038290 -0.382569 -0.008850
			CHANNELS 3 Zrotation Yrotation Xrotation
			JOINT RightFoot
			{
				OFFSET 0.015774 -0.398415 -0.042312
				CHANNELS 3 Zrotation Yrotation Xrotation
				JOINT RightToe
				{
					OFFSET -0.025372 -0.048144 0.123348
					CHANNELS 3 Zrotation Yrotation Xrotation
					End Site
					{
						OFFSET 0.000000 0.000000 0.000000
					}
				}
			}
		}
	}
	JOINT Spine
	{
		OFFSET -0.002533 0.108963 -0.026696
		CHANNELS 3 Zrotation Yrotation Xrotation
		JOINT Spine1
		{
			OFFSET 0.005487 0.135180 0.001092
			CHANNELS 3 Zrotation Yrotation Xrotation
			JOINT Spine2
			{
				OFFSET 0.001457 0.052922 0.025425
				CHANNELS 3 Zrotation Yrotation Xrotation
				JOINT Neck
				{
					OFFSET -0.002778 0.213870 -0.042857
					CHANNELS 3 Zrotation Yrotation Xrotation
					JOINT Head
					{
						OFFSET 0.005152 0.064970 0.051349
						CHANNELS 3 Zrotation Yrotation Xrotation
						End Site
						{
							OFFSET 0.000000 0.000000 0.000000
						}
					}
				}
				JOINT LeftShoulder
				{
					OFFSET 0.078845 0.121749 -0.034090
					CHANNELS 3 Zrotation Yrotation Xrotation
					JOINT LeftArm
					{
						OFFSET 0.090977 0.030469 -0.008868
						CHANNELS 3 Zrotation Yrotation Xrotation
						JOINT LeftForeArm
						{
							OFFSET 0.259612 -0.012772 -0.027456
							CHANNELS 3 Zrotation Yrotation Xrotation
							JOINT LeftHand
							{
								OFFSET 0.249234 0.008986 -0.001171
								CHANNELS 3 Zrotation Yrotation Xrotation
								End Site
								{
									OFFSET 0.000000 0.000000 0.000000
								}
							}
						}
					}
				}
				JOINT RightShoulder
				{
					OFFSET -0.081759 0.118833 -0.038615
					CHANNELS 3 Zrotation Yrotation Xrotation
					JOINT RightArm
					{
						OFFSET -0.096012 0.032551 -0.009143
						CHANNELS 3 Zrotation Yrotation Xrotation
						JOINT RightForeArm
						{
							OFFSET -0.253742 -0.013329 -0.021401
							CHANNELS 3 Zrotation Yrotation Xrotation
							JOINT RightHand
							{
								OFFSET -0.255298 0.007772 -0.005559
								CHANNELS 3 Zrotation Yrotation Xrotation
								End Site
								{
									OFFSET 0.000000 0.000000 0.000000
								}
							}
						}
					}
				}
			}
		}
	}
}
MOTION
Frames: 13
Frame Time: 0.050000
-0.149717 0.954870 0.205238 -9.183869 -32.410976 10.918735 15.219339 1.706227 -6.291675 11.371043 -0.283780 -8.216960 5.187665 9.103057 31.623066 0.000000 0.000000 0.000000 9.551390 -0.635760 0.159151 -3.452340 0.148363 -0.673125 1.001164 -9.226620 15.508353 0.000000 0.000000 0.000000 -11.360312 1.358625 5.337891 1.974621 -0.821923 -2.014811 -3.000421 -10.380262 8.524661 -7.126482 3.631488 -9.644931 0.000000 0.000000 0.000000 -5.573251 -6.903719 5.019830 -49.148394 -22.268484 4.021284 8.240191 -14.036041 0.021805 0.000000 0.000000 0.000000 1.879056 10.119950 2.016924 72.153093 10.581326 -6.637401 11.411531 20.906462 1.459540 0.000000 0.000000 0.000000 
-0.144138 0.955715 0.218378 -9.955665 -31.214357 11.307739 15.380150 1.620040 -5.840764 11.301587 -0.156137 -8.947603 4.924616 8.933018 30.594017 0.000000 0.000000 0.000000 9.525774 -0.613421 -0.017821 -3.158891 0.131683 -0.750550 0.905389 -10.961072 19.285145 0.000000 0.000000 0.000000 -11.188306 1.367806 5.929022 2.070287 -0.882449 -2.478021 -3.326428 -9.796466 8.523065 -6.188029 3.036350 -9.640830 0.000000 0.000000 0.000000 -5.000807 -7.318235 4.942572 -48.377473 -22.126734 3.767636 8.213998 -14.081359 0.015470 0.000000 0.000000 0.000000 2.418059 10.131970 1.929915 72.401111 9.909260 -6.722202 12.086821 21.812483 1.671585 0.000000 0.000000 0.000000 
-0.137913 0.957095 0.230155 -10.356012 -29.531584 11.692113 14.997314 1.399723 -5.444270 11.691982 0.125954 -10.487780 4.284677 8.418927 30.001604 0.000000 0.000000 0.000000 9.425689 -0.600940 -0.121999 -3.210580 0.086479 -1.626475 0.752035 -12.655240 24.031777 0.000000 0.000000 0.000000 -10.893870 1.366256 6.721819 2.160122 -0.927809 -2.754813 -3.449592 -9.377781 8.285701 -5.784902 2.870588 -9.499601 0.000000 0.000000 0.000000 -4.444580 -7.473047 4.740985 -48.040978 -22.675490 3.948623 8.401247 -14.655474 -0.001595 0.000000 0.000000 0.000000 2.880856 10.481944 1.999544 71.456690 9.342215 -6.394205 13.395019 23.054186 2.024069 0.000000 0.000000 0.000000 
-0.131275 0.958366 0.240306 -10.869434 -27.419612 11.779665 14.808190 1.220766 -5.271204 12.076506 0.329780 -11.513458 3.377940 7.642358 29.244651 0.000000 0.000000 0.000000 9.035038 -0.627963 0.165758 -2.939718 0.038961 -2.374340 1.853026 -12.313434 28.673544 0.000000 0.000000 0.000000 -10.505125 1.359016 7.845868 2.328506 -1.019063 -3.730559 -3.655560 -8.666500 8.739623 -4.923641 2.390242 -9.395224 0.000000 0.000000 0.000000 -3.224697 -7.977033 4.490071 -48.213639 -23.528970 4.416695 8.342883 -15.583442 -0.008993 0.000000 0.000000 0.000000 3.736517 10.450323 1.886151 70.315806 8.543827 -6.119954 14.441710 24.805154 2.437007 0.000000 0.000000 0.000000 
-0.124558 0.959913 0.248822 -10.889009 -24.970274 11.635952 14.564967 1.026136 -5.172704 11.806215 0.582657 -12.834022 2.223839 6.633254 28.666014 0.000000 0.000000 0.000000 8.753313 -0.607509 0.145851 -2.905633 0.040948 -2.398243 1.755229 -12.880667 32.361986 0.000000 0.000000 0.000000 -10.239162 1.316297 8.462963 2.690257 -1.158262 -3.824770 -3.792245 -8.678844 8.800540 -4.739263 2.396195 -9.109258 0.000000 0.000000 0.000000 -2.356994 -8.328332 4.323142 -48.311903 -24.753691 5.025311 8.325369 -16.473611 -0.015872 0.000000 0.000000 0.000000 3.784400 10.842077 2.125519 69.590196 9.020590 -5.404904 15.089854 25.402283 2.711259 0.000000 0.000000 0.000000 
-0.117980 0.960491 0.255817 -11.173220 -22.780086 11.763280 14.611214 0.897381 -5.237475 11.540263 0.806473 -14.036896 1.223249 5.742746 28.124873 0.000000 0.000000 0.000000 8.170752 -0.519399 -0.259719 -2.306209 0.018883 -2.379411 2.645947 -12.425223 36.968527 0.000000 0.000000 0.000000 -9.907841 1.292151 9.297762 2.977345 -1.263259 -4.653694 -3.828078 -8.343498 9.232318 -4.025824 1.977290 -9.209387 0.000000 0.000000 0.000000 -1.234282 -8.651614 4.098681 -48.658059 -25.999666 5.723056 8.726080 -17.720540 -0.067018 0.000000 0.000000 0.000000 4.159622 10.454403 2.024252 68.850230 8.928670 -5.031591 16.120408 26.425248 3.105742 0.000000 0.000000 0.000000 
-0.111539 0.960460 0.261315 -11.295089 -21.194929 11.628233 14.441330 0.775012 -5.042694 11.351930 0.980408 -15.005195 0.503221 5.077555 27.625488 0.000000 0.000000 0.000000 7.586902 -0.469442 -0.369791 -1.988164 -0.001051 -2.541603 3.417553 -12.038964 41.208022 0.000000 0.000000 0.000000 -9.668189 1.251453 9.752909 3.012179 -1.270122 -4.729903 -4.007226 -8.194287 9.436440 -3.478939 1.650166 -9.428951 0.000000 0.000000 0.000000 -0.442830 -8.367598 3.732393 -48.689070 -27.152400 6.315501 9.578120 -18.896654 -0.170330 0.000000 0.000000 0.000000 4.559827 10.634273 2.088492 68.325557 8.743823 -4.803178 16.540266 28.089870 3.453892 0.000000 0.000000 0.000000 
-0.105202 0.960071 0.265477 -11.486978 -20.162793 11.547861 14.304190 0.711711 -5.273726 11.247352 0.968646 -14.986457 0.132756 4.677043 26.893365 0.000000 0.000000 0.000000 6.940343 -0.446122 -0.281216 -1.581743 -0.007481 -2.309454 5.005288 -10.415845 42.210354 0.000000 0.000000 0.000000 -9.748474 1.312129 10.576763 2.934834 -1.235838 -4.609730 -3.790699 -7.781236 9.536635 -2.742824 1.179533 -9.869735 0.000000 0.000000 0.000000 -0.091340 -8.579987 3.700330 -47.999958 -28.243410 6.620000 10.498137 -19.462005 -0.308919 0.000000 0.000000 0.000000 4.957800 10.145592 1.924634 67.514018 9.338755 -4.121543 17.836653 29.223985 3.947028 0.000000 0.000000 0.000000 
-0.098810 0.960015 0.268693 -11.765082 -19.426484 11.669247 14.511866 0.707050 -5.580687 10.683999 0.945653 -14.992007 -0.088635 4.422042 26.289725 0.000000 0.000000 0.000000 6.484427 -0.365615 -0.676230 -0.990729 -0.026547 -2.118965 5.152990 -10.533220 44.616566 0.000000 0.000000 0.000000 -9.783427 1.335225 10.950843 2.764479 -1.164247 -4.528153 -3.569530 -7.713992 9.783087 -2.568952 1.066910 -10.247275 0.000000 0.000000 0.000000 -0.102034 -8.634906 3.710793 -47.292060 -28.783624 6.651310 11.517633 -19.661114 -0.452658 0.000000 0.000000 0.000000 5.736158 11.134704 2.166923 66.397174 10.907393 -2.844289 18.012037 29.880274 4.107947 0.000000 0.000000 0.000000 
-0.092203 0.960031 0.271702 -12.049812 -18.828900 12.000115 14.716045 0.724043 -6.200624 10.115343 0.881968 -14.749289 -0.211186 4.245958 25.679662 0.000000 0.000000 0.000000 5.876550 -0.257705 -1.251580 -0.365167 -0.047497 -1.897109 5.990720 -9.953511 46.656190 0.000000 0.000000 0.000000 -10.075416 1.429824 11.463874 2.921699 -1.221559 -4.364239 -3.133491 -7.524622 9.975324 -2.050974 0.742559 -10.305887 0.000000 0.000000 0.000000 -0.472787 -8.465180 3.707777 -46.380726 -29.419406 6.630452 12.276239 -19.798711 -0.563042 0.000000 0.000000 0.000000 6.405372 12.161193 2.473059 65.194153 13.175475 -1.243399 17.590509 30.138264 4.088024 0.000000 0.000000 0.000000 
-0.085586 0.960543 0.274702 -12.181476 -18.621776 12.153203 14.555053 0.716300 -6.691641 9.848068 0.782295 -14.210399 -0.170142 4.222304 25.139377 0.000000 0.000000 0.000000 5.238337 -0.107114 -2.139489 0.085398 -0.054844 -1.498104 5.928318 -10.561376 50.834280 0.000000 0.000000 0.000000 -10.002415 1.457206 11.915738 2.654674 -1.114995 -4.113607 -2.788079 -7.200570 9.800640 -1.648820 0.513872 -10.135700 0.000000 0.000000 0.000000 -0.895437 -8.547727 3.813826 -45.592259 -29.960132 6.602401 12.355139 -18.651771 -0.562364 0.000000 0.000000 0.000000 7.162931 13.302058 2.832032 63.720547 15.518126 0.361753 16.958757 30.441483 4.026238 0.000000 0.000000 0.000000 
-0.079107 0.960738 0.277647 -12.595758 -18.830880 12.456080 14.384453 0.736591 -7.215708 10.105002 0.650229 -13.382772 0.112005 4.417025 24.533712 0.000000 0.000000 0.000000 4.878612 0.010388 -2.916506 0.348572 -0.061043 -1.319366 6.157085 -10.831924 54.701387 0.000000 0.000000 0.000000 -9.949866 1.472153 12.062420 2.446863 -1.032764 -3.857819 -2.402130 -6.889335 9.873576 -1.146642 0.181106 -10.128566 0.000000 0.000000 0.000000 -1.049727 -8.793994 3.944601 -44.805290 -30.361283 6.565938 12.448136 -16.532937 -0.526397 0.000000 0.000000 0.000000 7.390042 14.476487 3.267398 62.875301 17.861253 1.729898 15.877058 30.195623 3.761860 0.000000 0.000000 0.000000 
-0.073267 0.960632 0.280219 -12.738016 -19.419884 12.969398 14.196886 0.762337 -7.654413 9.926411 0.584980 -12.997904 0.576428 4.832114 24.141746 0.000000 0.000000 0.000000 4.473324 0.118598 -3.672366 0.372174 -0.059559 -1.294710 5.948521 -11.242235 56.426257 0.000000 0.000000 0.000000 -10.151742 1.517563 11.778958 2.204150 -0.933379 -3.626187 -1.982995 -6.643868 9.787851 -0.730072 -0.122634 -10.595765 0.000000 0.000000 0.000000 -0.639564 -9.397766 4.127777 -43.752134 -30.178115 6.271041 12.468978 -14.816562 -0.474046 0.000000 0.000000 0.000000 7.375970 15.220489 3.542609 62.585582 19.891223 2.827969 14.832235 30.369164 3.534528 0.000000 0.000000 0.000000 
